<!-- Generated by IcoMoon.io -->
<svg version="1.1" xmlns="http://www.w3.org/2000/svg" width="1024" height="1024" viewBox="0 0 1024 1024">
<title></title>
<g id="icomoon-ignore">
</g>
<path fill="#000" d="M85.333 256c0-23.564 19.103-42.667 42.667-42.667h768c23.565 0 42.667 19.103 42.667 42.667s-19.102 42.667-42.667 42.667h-768c-23.564 0-42.667-19.103-42.667-42.667zM85.333 512c0-23.565 19.103-42.667 42.667-42.667h768c23.565 0 42.667 19.102 42.667 42.667s-19.102 42.667-42.667 42.667h-768c-23.564 0-42.667-19.102-42.667-42.667zM128 725.333c-23.564 0-42.667 19.102-42.667 42.667s19.103 42.667 42.667 42.667h768c23.565 0 42.667-19.102 42.667-42.667s-19.102-42.667-42.667-42.667h-768z"></path>
</svg>
