<?xml version="1.0" standalone="no"?>
<!DOCTYPE svg PUBLIC "-//W3C//DTD SVG 20010904//EN"
 "http://www.w3.org/TR/2001/REC-SVG-20010904/DTD/svg10.dtd">
<svg version="1.0" xmlns="http://www.w3.org/2000/svg"
 width="478.000000pt" height="478.000000pt" viewBox="0 0 478.000000 478.000000"
 preserveAspectRatio="xMidYMid meet">
<metadata>
Created by potrace 1.14, written by Peter Selinger 2001-2017
</metadata>
<g transform="translate(0.000000,478.000000) scale(0.100000,-0.100000)"
fill="#000000" stroke="none">
<path d="M2367 4428 c-17 -28 -130 -224 -158 -276 -20 -35 -79 -138 -99 -172
-5 -8 -30 -51 -55 -95 -25 -44 -57 -100 -71 -125 -45 -77 -135 -233 -156 -270
-11 -19 -56 -96 -98 -171 -43 -74 -88 -151 -99 -170 -11 -19 -26 -45 -34 -59
-21 -39 -293 -511 -316 -550 -12 -19 -24 -43 -27 -52 -4 -10 -10 -18 -15 -18
-5 0 -9 -5 -9 -10 0 -6 -24 -52 -54 -103 -29 -50 -76 -132 -105 -180 -28 -49
-51 -93 -51 -98 0 -5 -4 -9 -9 -9 -5 0 -12 -9 -16 -20 -3 -10 -30 -59 -59
-107 -29 -48 -55 -95 -59 -103 -4 -8 -21 -37 -37 -65 -17 -27 -38 -65 -47 -82
-9 -18 -20 -33 -25 -33 -4 0 -8 -5 -8 -10 0 -13 -87 -167 -107 -191 -7 -9 -11
-18 -8 -21 3 -3 -1 -11 -10 -18 -8 -7 -15 -18 -15 -25 0 -8 -3 -15 -7 -17 -5
-1 -17 -19 -27 -38 -10 -19 -42 -75 -71 -125 -91 -156 -232 -399 -253 -435
-11 -19 -72 -125 -136 -236 -64 -110 -116 -205 -116 -210 0 -10 4745 -12 4756
-2 7 8 -17 68 -28 68 -5 0 -8 5 -8 10 0 6 -11 27 -23 48 -26 41 -64 107 -111
192 -16 30 -32 57 -35 60 -3 3 -11 14 -17 25 -56 104 -152 269 -238 410 -19
33 -41 72 -47 88 -6 15 -15 27 -20 27 -5 0 -9 5 -9 11 0 6 -40 80 -90 165 -49
84 -90 156 -90 158 0 3 -12 22 -26 43 -14 21 -30 47 -35 58 -5 11 -19 36 -30
55 -43 72 -283 486 -298 515 -9 16 -18 32 -21 35 -3 3 -14 21 -24 40 -11 19
-33 58 -50 85 -17 28 -38 61 -45 75 -8 14 -52 90 -98 168 -46 79 -83 146 -83
150 0 3 -6 13 -14 21 -7 9 -30 48 -51 86 -21 39 -44 79 -51 90 -7 11 -26 45
-43 75 -36 63 -108 188 -121 210 -61 101 -150 261 -150 269 0 6 -4 11 -10 11
-5 0 -10 4 -10 9 0 5 -39 76 -86 158 -48 81 -100 173 -116 203 -17 30 -38 66
-48 80 -9 14 -24 39 -32 55 -8 17 -47 85 -86 152 -40 68 -72 127 -72 132 0 5
-3 11 -7 13 -5 2 -15 16 -23 32 -20 38 -35 43 -53 14z m853 -2246 c0 -4 -25
-49 -185 -327 -76 -132 -143 -249 -149 -260 -6 -11 -13 -22 -16 -25 -3 -3 -11
-16 -18 -30 -13 -27 -22 -43 -132 -230 -40 -69 -86 -150 -103 -180 -17 -30
-34 -56 -39 -58 -4 -2 -8 -8 -8 -14 0 -5 -35 -69 -77 -141 -42 -73 -82 -142
-88 -155 -12 -21 -16 -17 -74 83 -34 58 -71 123 -83 143 -11 20 -29 51 -39 67
-11 17 -24 41 -31 55 -7 14 -34 60 -60 103 -27 43 -48 80 -48 82 0 2 -20 38
-45 79 -25 42 -45 79 -45 83 0 4 -6 14 -14 22 -8 9 -26 39 -41 66 -14 28 -36
66 -47 85 -11 19 -72 125 -135 235 -63 110 -128 221 -144 246 -16 25 -29 52
-29 60 0 12 121 14 825 14 454 0 825 -1 825 -3z"/>
</g>
</svg>
